<svg width="129" height="129" viewBox="0 0 129 129" fill="none" xmlns="http://www.w3.org/2000/svg">
<g clip-path="url(#clip0_55_28992)">
<path d="M34.5 30.9543C12.7748 30.9543 0.5 43.2291 0.5 64.9543C0.5 86.6796 12.7748 98.9543 34.5 98.9543V79.1844C25.3754 79.1844 20.27 73.9703 20.27 64.9543C20.27 55.8297 25.484 50.7243 34.5 50.7243C43.6246 50.7243 48.73 55.9384 48.73 64.9543H68.5C68.5 43.2291 56.2252 30.9543 34.5 30.9543Z" fill="#0061FE"/>
<path d="M34.5 50.7241V64.9542H20.27C20.27 74.0788 25.4841 79.1842 34.5 79.1842C43.6246 79.1842 48.7301 73.9701 48.7301 64.9542C48.7301 55.8296 43.6246 50.7241 34.5 50.7241Z" fill="#1E1919"/>
</g>
<defs>
<clipPath id="clip0_55_28992">
<rect width="128" height="128" fill="white" transform="translate(0.5 0.954346)"/>
</clipPath>
</defs>
</svg>
