<svg width="129" height="129" viewBox="0 0 129 129" fill="none" xmlns="http://www.w3.org/2000/svg">
<g clip-path="url(#clip0_55_29147)">
<path d="M22.4912 64.9543C22.4912 72.0174 26.1664 76.2672 32.6788 76.9615V94.9543H0.5V77.0573C8.2095 77.0573 12.603 72.6758 12.603 64.9543C12.603 57.2448 8.2095 52.8514 0.5 52.8514V34.9543H32.6788V52.9591C26.1664 53.6295 22.4912 57.9033 22.4912 64.9543Z" fill="#1E1919"/>
<path d="M56.5851 64.9543C56.5851 72.6758 60.9786 77.0573 68.688 77.0573V94.9543H36.5093V76.9496C43.0216 76.2672 46.6968 72.0054 46.6968 64.9424C46.6968 57.8913 43.0216 53.6295 36.5093 52.9472V34.9543H68.688V52.8514C60.9786 52.8514 56.5851 57.2448 56.5851 64.9543Z" fill="#0061FE"/>
</g>
<defs>
<clipPath id="clip0_55_29147">
<rect width="128" height="128" fill="white" transform="translate(0.5 0.954346)"/>
</clipPath>
</defs>
</svg>
